<mxfile host="app.diagrams.net" agent="Mozilla/5.0 (Windows NT 10.0; Win64; x64) AppleWebKit/537.36 (KHTML, like Gecko) Chrome/129.0.0.0 Safari/537.36 Edg/129.0.0.0" version="24.7.17">
  <diagram name="1 oldal" id="RK6Fw8q0O25uIqAaeUpa">
    <mxGraphModel dx="1195" dy="627" grid="1" gridSize="10" guides="1" tooltips="1" connect="1" arrows="1" fold="1" page="1" pageScale="1" pageWidth="827" pageHeight="1169" math="0" shadow="0">
      <root>
        <mxCell id="0" />
        <mxCell id="1" parent="0" />
        <mxCell id="m8FIq9i-gYM38uHAfiCr-1" value="&lt;font style=&quot;font-size: 7px;&quot;&gt;S7KTW0_kurzusfelvetel&lt;/font&gt;" style="ellipse;whiteSpace=wrap;html=1;" vertex="1" parent="1">
          <mxGeometry x="530" y="20" width="80" height="40" as="geometry" />
        </mxCell>
        <mxCell id="m8FIq9i-gYM38uHAfiCr-2" value="&lt;font style=&quot;font-size: 13px;&quot;&gt;hallgatok&lt;/font&gt;" style="ellipse;whiteSpace=wrap;html=1;fontSize=13;" vertex="1" parent="1">
          <mxGeometry x="280" y="140" width="80" height="40" as="geometry" />
        </mxCell>
        <mxCell id="m8FIq9i-gYM38uHAfiCr-3" value="kurzusok" style="ellipse;whiteSpace=wrap;html=1;fontSize=13;" vertex="1" parent="1">
          <mxGeometry x="760" y="140" width="80" height="40" as="geometry" />
        </mxCell>
        <mxCell id="m8FIq9i-gYM38uHAfiCr-5" value="&lt;font style=&quot;font-size: 13px;&quot;&gt;hallgato&lt;/font&gt;" style="ellipse;whiteSpace=wrap;html=1;fontSize=13;" vertex="1" parent="1">
          <mxGeometry x="280" y="230" width="80" height="40" as="geometry" />
        </mxCell>
        <mxCell id="m8FIq9i-gYM38uHAfiCr-6" value="&lt;font style=&quot;font-size: 13px;&quot;&gt;szulev&lt;/font&gt;" style="ellipse;whiteSpace=wrap;html=1;fontSize=13;" vertex="1" parent="1">
          <mxGeometry x="280" y="350" width="80" height="40" as="geometry" />
        </mxCell>
        <mxCell id="m8FIq9i-gYM38uHAfiCr-7" value="&lt;font style=&quot;font-size: 13px;&quot;&gt;hnev&lt;/font&gt;" style="ellipse;whiteSpace=wrap;html=1;fontSize=13;" vertex="1" parent="1">
          <mxGeometry x="180" y="350" width="80" height="40" as="geometry" />
        </mxCell>
        <mxCell id="m8FIq9i-gYM38uHAfiCr-8" value="&lt;font style=&quot;font-size: 13px;&quot;&gt;szak&lt;/font&gt;" style="ellipse;whiteSpace=wrap;html=1;fontSize=13;" vertex="1" parent="1">
          <mxGeometry x="374" y="350" width="80" height="40" as="geometry" />
        </mxCell>
        <mxCell id="m8FIq9i-gYM38uHAfiCr-10" value="kurzus" style="ellipse;whiteSpace=wrap;html=1;fontSize=13;" vertex="1" parent="1">
          <mxGeometry x="760" y="230" width="80" height="40" as="geometry" />
        </mxCell>
        <mxCell id="m8FIq9i-gYM38uHAfiCr-11" value="hely" style="ellipse;whiteSpace=wrap;html=1;" vertex="1" parent="1">
          <mxGeometry x="700" y="350" width="80" height="40" as="geometry" />
        </mxCell>
        <mxCell id="m8FIq9i-gYM38uHAfiCr-12" value="kredit" style="ellipse;whiteSpace=wrap;html=1;" vertex="1" parent="1">
          <mxGeometry x="610" y="350" width="80" height="40" as="geometry" />
        </mxCell>
        <mxCell id="m8FIq9i-gYM38uHAfiCr-13" value="kurzusnev" style="ellipse;whiteSpace=wrap;html=1;" vertex="1" parent="1">
          <mxGeometry x="520" y="350" width="80" height="40" as="geometry" />
        </mxCell>
        <mxCell id="m8FIq9i-gYM38uHAfiCr-14" value="idopont" style="ellipse;whiteSpace=wrap;html=1;" vertex="1" parent="1">
          <mxGeometry x="827" y="350" width="80" height="40" as="geometry" />
        </mxCell>
        <mxCell id="m8FIq9i-gYM38uHAfiCr-15" value="oktato" style="ellipse;whiteSpace=wrap;html=1;" vertex="1" parent="1">
          <mxGeometry x="920" y="350" width="80" height="40" as="geometry" />
        </mxCell>
        <mxCell id="m8FIq9i-gYM38uHAfiCr-16" value="oraado" style="ellipse;whiteSpace=wrap;html=1;" vertex="1" parent="1">
          <mxGeometry x="1010" y="350" width="80" height="40" as="geometry" />
        </mxCell>
        <mxCell id="m8FIq9i-gYM38uHAfiCr-17" value="" style="endArrow=none;html=1;rounded=0;entryX=0.5;entryY=1;entryDx=0;entryDy=0;exitX=0.5;exitY=0;exitDx=0;exitDy=0;" edge="1" parent="1" source="m8FIq9i-gYM38uHAfiCr-2" target="m8FIq9i-gYM38uHAfiCr-1">
          <mxGeometry width="50" height="50" relative="1" as="geometry">
            <mxPoint x="620" y="290" as="sourcePoint" />
            <mxPoint x="670" y="240" as="targetPoint" />
          </mxGeometry>
        </mxCell>
        <mxCell id="m8FIq9i-gYM38uHAfiCr-18" value="" style="endArrow=none;html=1;rounded=0;entryX=0.5;entryY=0;entryDx=0;entryDy=0;exitX=0.5;exitY=1;exitDx=0;exitDy=0;" edge="1" parent="1" source="m8FIq9i-gYM38uHAfiCr-1" target="m8FIq9i-gYM38uHAfiCr-3">
          <mxGeometry width="50" height="50" relative="1" as="geometry">
            <mxPoint x="620" y="290" as="sourcePoint" />
            <mxPoint x="670" y="240" as="targetPoint" />
          </mxGeometry>
        </mxCell>
        <mxCell id="m8FIq9i-gYM38uHAfiCr-20" value="" style="endArrow=none;html=1;rounded=0;entryX=0.5;entryY=1;entryDx=0;entryDy=0;exitX=0.5;exitY=0;exitDx=0;exitDy=0;" edge="1" parent="1" source="m8FIq9i-gYM38uHAfiCr-5" target="m8FIq9i-gYM38uHAfiCr-2">
          <mxGeometry width="50" height="50" relative="1" as="geometry">
            <mxPoint x="620" y="290" as="sourcePoint" />
            <mxPoint x="320" y="240.0000000000001" as="targetPoint" />
          </mxGeometry>
        </mxCell>
        <mxCell id="m8FIq9i-gYM38uHAfiCr-21" value="" style="endArrow=none;html=1;rounded=0;entryX=0.5;entryY=1;entryDx=0;entryDy=0;exitX=0.5;exitY=0;exitDx=0;exitDy=0;" edge="1" parent="1" source="m8FIq9i-gYM38uHAfiCr-6" target="m8FIq9i-gYM38uHAfiCr-5">
          <mxGeometry width="50" height="50" relative="1" as="geometry">
            <mxPoint x="620" y="290" as="sourcePoint" />
            <mxPoint x="670" y="240" as="targetPoint" />
          </mxGeometry>
        </mxCell>
        <mxCell id="m8FIq9i-gYM38uHAfiCr-22" value="" style="endArrow=none;html=1;rounded=0;entryX=0.5;entryY=1;entryDx=0;entryDy=0;exitX=0.5;exitY=0;exitDx=0;exitDy=0;" edge="1" parent="1" source="m8FIq9i-gYM38uHAfiCr-8" target="m8FIq9i-gYM38uHAfiCr-5">
          <mxGeometry width="50" height="50" relative="1" as="geometry">
            <mxPoint x="620" y="290" as="sourcePoint" />
            <mxPoint x="670" y="240" as="targetPoint" />
          </mxGeometry>
        </mxCell>
        <mxCell id="m8FIq9i-gYM38uHAfiCr-23" value="" style="endArrow=none;html=1;rounded=0;entryX=0.5;entryY=1;entryDx=0;entryDy=0;exitX=0.5;exitY=0;exitDx=0;exitDy=0;" edge="1" parent="1" source="m8FIq9i-gYM38uHAfiCr-7" target="m8FIq9i-gYM38uHAfiCr-5">
          <mxGeometry width="50" height="50" relative="1" as="geometry">
            <mxPoint x="620" y="290" as="sourcePoint" />
            <mxPoint x="670" y="240" as="targetPoint" />
          </mxGeometry>
        </mxCell>
        <mxCell id="m8FIq9i-gYM38uHAfiCr-25" value="" style="endArrow=none;html=1;rounded=0;exitX=0.5;exitY=0;exitDx=0;exitDy=0;entryX=0.5;entryY=1;entryDx=0;entryDy=0;" edge="1" parent="1" source="m8FIq9i-gYM38uHAfiCr-10" target="m8FIq9i-gYM38uHAfiCr-3">
          <mxGeometry width="50" height="50" relative="1" as="geometry">
            <mxPoint x="620" y="290" as="sourcePoint" />
            <mxPoint x="800" y="200" as="targetPoint" />
          </mxGeometry>
        </mxCell>
        <mxCell id="m8FIq9i-gYM38uHAfiCr-26" value="" style="endArrow=none;html=1;rounded=0;entryX=0.5;entryY=1;entryDx=0;entryDy=0;exitX=0.5;exitY=0;exitDx=0;exitDy=0;" edge="1" parent="1" source="m8FIq9i-gYM38uHAfiCr-13" target="m8FIq9i-gYM38uHAfiCr-10">
          <mxGeometry width="50" height="50" relative="1" as="geometry">
            <mxPoint x="620" y="290" as="sourcePoint" />
            <mxPoint x="670" y="240" as="targetPoint" />
          </mxGeometry>
        </mxCell>
        <mxCell id="m8FIq9i-gYM38uHAfiCr-27" value="" style="endArrow=none;html=1;rounded=0;entryX=0.5;entryY=1;entryDx=0;entryDy=0;exitX=0.5;exitY=0;exitDx=0;exitDy=0;" edge="1" parent="1" source="m8FIq9i-gYM38uHAfiCr-12" target="m8FIq9i-gYM38uHAfiCr-10">
          <mxGeometry width="50" height="50" relative="1" as="geometry">
            <mxPoint x="620" y="290" as="sourcePoint" />
            <mxPoint x="670" y="240" as="targetPoint" />
          </mxGeometry>
        </mxCell>
        <mxCell id="m8FIq9i-gYM38uHAfiCr-28" value="" style="endArrow=none;html=1;rounded=0;entryX=0.5;entryY=1;entryDx=0;entryDy=0;exitX=0.5;exitY=0;exitDx=0;exitDy=0;" edge="1" parent="1" source="m8FIq9i-gYM38uHAfiCr-11" target="m8FIq9i-gYM38uHAfiCr-10">
          <mxGeometry width="50" height="50" relative="1" as="geometry">
            <mxPoint x="620" y="290" as="sourcePoint" />
            <mxPoint x="670" y="240" as="targetPoint" />
          </mxGeometry>
        </mxCell>
        <mxCell id="m8FIq9i-gYM38uHAfiCr-29" value="" style="endArrow=none;html=1;rounded=0;entryX=0.5;entryY=1;entryDx=0;entryDy=0;exitX=0.5;exitY=0;exitDx=0;exitDy=0;" edge="1" parent="1" source="m8FIq9i-gYM38uHAfiCr-14" target="m8FIq9i-gYM38uHAfiCr-10">
          <mxGeometry width="50" height="50" relative="1" as="geometry">
            <mxPoint x="620" y="290" as="sourcePoint" />
            <mxPoint x="670" y="240" as="targetPoint" />
          </mxGeometry>
        </mxCell>
        <mxCell id="m8FIq9i-gYM38uHAfiCr-30" value="" style="endArrow=none;html=1;rounded=0;entryX=0.5;entryY=1;entryDx=0;entryDy=0;exitX=0.5;exitY=0;exitDx=0;exitDy=0;" edge="1" parent="1" source="m8FIq9i-gYM38uHAfiCr-15" target="m8FIq9i-gYM38uHAfiCr-10">
          <mxGeometry width="50" height="50" relative="1" as="geometry">
            <mxPoint x="620" y="290" as="sourcePoint" />
            <mxPoint x="670" y="240" as="targetPoint" />
          </mxGeometry>
        </mxCell>
        <mxCell id="m8FIq9i-gYM38uHAfiCr-31" value="" style="endArrow=none;html=1;rounded=0;entryX=0.5;entryY=1;entryDx=0;entryDy=0;exitX=0.5;exitY=0;exitDx=0;exitDy=0;" edge="1" parent="1" source="m8FIq9i-gYM38uHAfiCr-16" target="m8FIq9i-gYM38uHAfiCr-10">
          <mxGeometry width="50" height="50" relative="1" as="geometry">
            <mxPoint x="620" y="290" as="sourcePoint" />
            <mxPoint x="670" y="240" as="targetPoint" />
          </mxGeometry>
        </mxCell>
      </root>
    </mxGraphModel>
  </diagram>
</mxfile>
